<?xml version="1.0" encoding="UTF-8"?>
<!--Generator: Apple Native CoreSVG 175.5-->
<!DOCTYPE svg
PUBLIC "-//W3C//DTD SVG 1.1//EN"
       "http://www.w3.org/Graphics/SVG/1.1/DTD/svg11.dtd">
<svg version="1.1" xmlns="http://www.w3.org/2000/svg" xmlns:xlink="http://www.w3.org/1999/xlink" viewBox="0 0 26.8336 18.4623" preserveAspectRatio="xMidYMid meet">
 <g>
  <rect height="18.4623" opacity="0" width="26.8336" x="0" y="0"/>
  <path d="M13.4199 17.6895C15.2223 17.6895 16.8719 17.3761 18.3715 16.869L16.8162 15.3103C15.7508 15.6259 14.624 15.8161 13.4199 15.8161C7.17245 15.8161 2.2117 10.5989 2.2117 9.23779C2.2117 8.58232 3.87772 6.45985 6.55117 4.81747L5.0836 3.35166C1.88789 5.37744 0 8.0667 0 9.23779C0 11.2352 5.52149 17.6895 13.4199 17.6895ZM13.4199 0.78955C11.7189 0.78955 10.1689 1.08076 8.73515 1.55576L10.2984 3.11278C11.2883 2.82743 12.3092 2.66297 13.4199 2.66297C19.6594 2.66297 24.6219 8.09677 24.6219 9.23779C24.6219 10.0024 23.043 11.9978 20.526 13.5771L21.975 15.0313C25.0346 13.0136 26.8336 10.3849 26.8336 9.23779C26.8336 7.23584 21.4266 0.78955 13.4199 0.78955ZM13.4199 14.5026C14.1773 14.5026 14.8912 14.3194 15.5313 14.0206L8.61659 7.10594C8.308 7.74423 8.13456 8.46611 8.13456 9.23955C8.14257 12.1038 10.4828 14.5026 13.4199 14.5026ZM18.2943 11.1251C18.5531 10.5446 18.6928 9.9001 18.6928 9.23603C18.6928 6.30067 16.3445 3.97645 13.4217 3.97645C12.7434 3.97645 12.1068 4.1161 11.5264 4.35712ZM21.116 17.8548C21.4195 18.1663 21.9059 18.1823 22.2156 17.8548C22.5414 17.5272 22.5174 17.0667 22.2156 16.7552L5.67832 0.227636C5.37481-0.0758788 4.87871-0.0758788 4.56895 0.227636C4.2752 0.521386 4.2752 1.03525 4.56895 1.32724Z"/>
 </g>
</svg>
