<?xml version="1.0" encoding="UTF-8"?>
<!--Generator: Apple Native CoreSVG 175.5-->
<!DOCTYPE svg
PUBLIC "-//W3C//DTD SVG 1.1//EN"
       "http://www.w3.org/Graphics/SVG/1.1/DTD/svg11.dtd">
<svg version="1.1" xmlns="http://www.w3.org/2000/svg" xmlns:xlink="http://www.w3.org/1999/xlink" viewBox="0 0 17.998 17.9785" preserveAspectRatio="xMidYMid meet">
 <g>
  <rect height="17.998" opacity="0" width="17.9785" x="0" y="0"/>
  <path d="M3.20351 18.2476L15.0246 18.2476C17.1404 18.2476 18.2281 17.16 18.2281 15.0762L18.2281 3.19101C18.2281 1.10547 17.1404 0.0195312 15.0246 0.0195312L3.20351 0.0195312C1.0957 0.0195312 0 1.09746 0 3.19101L0 15.0762C0 17.168 1.0957 18.2476 3.20351 18.2476ZM3.31444 16.3344C2.40643 16.3344 1.91327 15.8643 1.91327 14.9154L1.91327 3.34999C1.91327 2.40116 2.40643 1.9328 3.31444 1.9328L14.9137 1.9328C15.8137 1.9328 16.3148 2.40116 16.3148 3.34999L16.3148 14.9154C16.3148 15.8643 15.8137 16.3344 14.9137 16.3344ZM4.60976 9.11894C4.60976 9.64843 4.98398 10.0182 5.52597 10.0182L8.20371 10.0182L8.20371 12.7039C8.20371 13.2379 8.57968 13.6201 9.11093 13.6201C9.65019 13.6201 10.0342 13.2459 10.0342 12.7039L10.0342 10.0182L12.7199 10.0182C13.2557 10.0182 13.6361 9.64843 13.6361 9.11894C13.6361 8.57968 13.2557 8.1957 12.7199 8.1957L10.0342 8.1957L10.0342 5.51796C10.0342 4.97421 9.65019 4.59374 9.11093 4.59374C8.57968 4.59374 8.20371 4.97421 8.20371 5.51796L8.20371 8.1957L5.52597 8.1957C4.98398 8.1957 4.60976 8.57968 4.60976 9.11894Z"/>
 </g>
</svg>
