<?xml version="1.0" encoding="UTF-8"?>
<!--Generator: Apple Native CoreSVG 175.5-->
<!DOCTYPE svg
PUBLIC "-//W3C//DTD SVG 1.1//EN"
       "http://www.w3.org/Graphics/SVG/1.1/DTD/svg11.dtd">
<svg version="1.1" xmlns="http://www.w3.org/2000/svg" xmlns:xlink="http://www.w3.org/1999/xlink" viewBox="0 0 21.1492 20.9601" preserveAspectRatio="xMidYMid meet">
 <g>
  <rect height="20.9601" opacity="0" width="21.1492" x="0" y="0"/>
  <path d="M3.20351 16.3174L5.80956 16.3174L5.80956 14.4041L3.31444 14.4041C2.40643 14.4041 1.91327 13.9277 1.91327 12.9771L1.91327 3.358C1.91327 2.40917 2.40643 1.9328 3.31444 1.9328L12.9754 1.9328C13.8754 1.9328 14.3766 2.40917 14.3766 3.358L14.3766 5.48085L16.2898 5.48085L16.2898 3.19101C16.2898 1.10547 15.1941 0.0195312 13.0943 0.0195312L3.20351 0.0195312C1.08769 0.0195312 0 1.10547 0 3.19101L0 13.1459C0 15.2297 1.08769 16.3174 3.20351 16.3174ZM8.06464 20.9601L17.9537 20.9601C20.0553 20.9601 21.1492 19.8724 21.1492 17.7887L21.1492 7.83202C21.1492 5.74823 20.0553 4.66054 17.9537 4.66054L8.06464 4.66054C5.94706 4.66054 4.85937 5.74023 4.85937 7.83202L4.85937 17.7887C4.85937 19.8724 5.94706 20.9601 8.06464 20.9601ZM8.17557 19.0469C7.27381 19.0469 6.77264 18.5687 6.77264 17.6199L6.77264 8.00077C6.77264 7.05194 7.27381 6.57557 8.17557 6.57557L17.8348 6.57557C18.7348 6.57557 19.2359 7.05194 19.2359 8.00077L19.2359 17.6199C19.2359 18.5687 18.7348 19.0469 17.8348 19.0469Z"/>
 </g>
</svg>
