<?xml version="1.0" encoding="UTF-8"?>
<svg width="428px" height="926px" viewBox="0 0 428 926" version="1.1" xmlns="http://www.w3.org/2000/svg" xmlns:xlink="http://www.w3.org/1999/xlink">
    <title>splash_screen</title>
    <defs>
        <polygon id="path-1" points="0 0 92 0 92 46 0 46"></polygon>
    </defs>
    <g id="splash_screen" stroke="none" stroke-width="1" fill="none" fill-rule="evenodd">
        <rect fill="#1B45B9" x="0" y="0" width="428" height="926"></rect>
        <g id="Group" transform="translate(167.000000, 420.000000)">
            <g id="Group-12-Copy">
                <mask id="mask-2" fill="white">
                    <use xlink:href="#path-1"></use>
                </mask>
                <g id="Clip-11"></g>
                <path d="M10.9766336,19.2632685 C9.01960784,22.0269508 9.12584341,27.5543155 8.37282072,31.41412 C7.41670063,36.2962792 3.93071594,38.9103486 0,40.9716817 C1.1758819,36.1664069 2.17678757,31.3611321 2.57569171,26.5600133 C3.06416701,20.6191352 2.20074265,21.0045961 7.36358285,16.742707 C14.6063488,10.7561139 26.355794,5.89473433 43.8950777,2.47337869 C59.2367432,-0.0554945573 75.4335009,-0.347447467 92,0.285290334 C86.4424218,11.5602831 68.6833764,12.5057534 47.0071548,10.1399998 C35.6930671,10.2615602 25.175746,7.09994919 10.9766336,19.2632685 Z M63.0122719,36.5892711 C38.6791197,49.2918201 14.2678531,22.3594239 5.76067563,40.8792126 C18.90264,29.4701916 37.4865734,60.7122699 63.0122719,36.5892711 Z M78.5580763,20.7199161 C50.5098039,37.6687695 19.2036408,15.784769 10.4277499,32.3034855 C31.7425622,24.607773 58.9315763,49.4580566 78.5580763,20.7199161 Z M83.7698682,11.5114512 C59.1315492,22.4820233 21.0336005,2.77364343 11.5265589,25.4607742 C30.9280895,14.1940932 64.2860571,34.4219623 83.7698682,11.5114512 Z" id="Fill-10" fill="#FFFFFF" mask="url(#mask-2)"></path>
            </g>
            <text id="Promovize" font-family="SFProRounded-Semibold, SF Pro Rounded" font-size="20" font-weight="500">
                <tspan x="0" y="80" fill="#F2F2F7">Promo</tspan>
                <tspan x="57.4121094" y="80" fill="#FDEE4F">vize</tspan>
            </text>
        </g>
    </g>
</svg>