<?xml version="1.0" encoding="UTF-8"?>
<svg width="147.215px" height="147.07px" viewBox="0 0 147.215 147.07" version="1.1" xmlns="http://www.w3.org/2000/svg" xmlns:xlink="http://www.w3.org/1999/xlink">
    <title>Logo</title>
    <defs>
        <polygon id="path-1" points="0 0 147.215 0 147.215 147.07 0 147.07"></polygon>
        <polygon id="path-3" points="0 0 108 0 108 54 0 54"></polygon>
    </defs>
    <g id="Page-1" stroke="none" stroke-width="1" fill="none" fill-rule="evenodd">
        <g id="logo-black" transform="translate(-425.969000, -360.844000)">
            <g id="Logo" transform="translate(425.969000, 360.844000)">
                <g id="Group-9" transform="translate(-0.000000, 0.000000)">
                    <mask id="mask-2" fill="white">
                        <use xlink:href="#path-1"></use>
                    </mask>
                    <g id="Clip-8"></g>
                    <path d="M44.164,147.07 C19.773,147.07 0,127.297 0,102.906 L0,44.019 C0,19.629 19.773,-0.145 44.164,-0.145 L103.051,-0.145 C127.441,-0.145 147.215,19.629 147.215,44.019 L147.215,102.906 C147.215,127.297 127.441,147.07 103.051,147.07 L44.164,147.07 Z" id="Fill-7" fill="#000000" mask="url(#mask-2)"></path>
                </g>
                <g id="Group-12" transform="translate(20.031000, 46.156000)">
                    <mask id="mask-4" fill="white">
                        <use xlink:href="#path-3"></use>
                    </mask>
                    <g id="Clip-11"></g>
                    <path d="M12.8856134,22.6134021 C10.5882353,25.8577249 10.7129466,32.3463704 9.82896346,36.8774452 C8.70656161,42.6086756 4.61431871,45.6773658 0,48.0971915 C1.3803831,42.4562168 2.55535933,36.8152421 3.02363809,31.179146 C3.59706562,24.2050717 2.58348051,24.6575694 8.64420595,19.6544822 C17.1465833,12.6267424 30.9394104,6.91990551 51.5290042,2.90353151 C69.5387855,-0.0651457846 88.5523706,-0.407873114 108,0.334906045 C101.475886,13.5707672 80.6283114,14.6806671 55.1823122,11.903478 C41.900557,12.0461794 29.5541367,8.33472296 12.8856134,22.6134021 Z M73.9709279,42.9526226 C45.4059231,57.8643106 16.7492189,26.2480193 6.76253226,47.9886409 C22.1900557,34.5954423 44.0059774,71.2709255 73.9709279,42.9526226 Z M92.2203505,24.3233798 C59.2941176,44.2198599 22.5434044,18.5299463 12.2412716,37.9214829 C37.2630077,28.8873857 69.1805461,58.0594578 92.2203505,24.3233798 Z M98.338541,13.5134427 C69.4152968,26.3919404 24.691618,3.2560162 13.5311778,29.8887349 C36.3068877,16.6626312 75.466241,40.4083905 98.338541,13.5134427 Z" id="Fill-10" fill="#FFFFFF" mask="url(#mask-4)"></path>
                </g>
            </g>
        </g>
    </g>
</svg>