<?xml version="1.0" encoding="UTF-8"?>
<!--Generator: Apple Native CoreSVG 175.5-->
<!DOCTYPE svg
PUBLIC "-//W3C//DTD SVG 1.1//EN"
       "http://www.w3.org/Graphics/SVG/1.1/DTD/svg11.dtd">
<svg version="1.1" xmlns="http://www.w3.org/2000/svg" xmlns:xlink="http://www.w3.org/1999/xlink" viewBox="0 0 21.9088 17.1445" preserveAspectRatio="xMidYMid meet">
 <g>
  <rect height="17.1445" opacity="0" width="21.9088" x="0" y="0"/>
  <path d="M3.20351 17.1445L18.949 17.1445C20.8211 17.1445 21.9088 16.0568 21.9088 13.973L21.9088 3.18124C21.9088 1.10547 20.8131 0.0177735 18.7035 0.0177735L2.958 0.0177735C1.08769 0.0177735 0 1.09746 0 3.18124L0 13.973C0 16.0648 1.0957 17.1445 3.20351 17.1445ZM3.19941 15.334C2.28964 15.334 1.79471 14.8656 1.79471 13.9115L1.79471 3.24277C1.79471 2.29843 2.28964 1.82831 3.19941 1.82831L18.7076 1.82831C19.6031 1.82831 20.1141 2.29843 20.1141 3.25077L20.1141 13.9195C20.1141 14.8656 19.6031 15.334 18.7076 15.334ZM10.9695 11.2373C11.6918 11.2373 12.3822 10.9365 13.0834 10.2451L20.941 2.51894L19.7725 1.33886L12.0879 8.9293C11.6803 9.33516 11.3293 9.51191 10.9695 9.51191C10.6018 9.51191 10.2525 9.32715 9.85116 8.9293L2.13456 1.30683L0.958001 2.48515L8.8539 10.2451C9.55683 10.9365 10.2393 11.2373 10.9695 11.2373ZM19.6502 15.6807L20.8205 14.5006L14.5812 8.32539L13.4092 9.4957ZM1.11054 14.5086L2.2826 15.6887L8.52987 9.4957L7.35156 8.32539Z"/>
 </g>
</svg>
