<?xml version="1.0" encoding="UTF-8"?>
<!--Generator: Apple Native CoreSVG 175.5-->
<!DOCTYPE svg
PUBLIC "-//W3C//DTD SVG 1.1//EN"
       "http://www.w3.org/Graphics/SVG/1.1/DTD/svg11.dtd">
<svg version="1.1" xmlns="http://www.w3.org/2000/svg" xmlns:xlink="http://www.w3.org/1999/xlink" viewBox="0 0 17.7734 17.9785" preserveAspectRatio="xMidYMid meet">
 <g>
  <rect height="17.7832" opacity="0" width="17.7734" x="0" y="0"/>
  <path d="M16.6309 1.15234C15.6348 0.15625 14.2285 0 12.5586 0L5.18555 0C3.54492 0 2.13867 0.15625 1.14258 1.15234C0.146484 2.14844 0 3.54492 0 5.17578L0 12.5586C0 14.2285 0.146484 15.6152 1.14258 16.6113C2.13867 17.6074 3.54492 17.7637 5.20508 17.7637L12.5586 17.7637C14.2285 17.7637 15.6348 17.6074 16.6309 16.6113C17.627 15.6152 17.7734 14.2285 17.7734 12.5586L17.7734 5.20508C17.7734 3.53516 17.627 2.13867 16.6309 1.15234ZM4.12109 8.89648C4.12109 8.38867 4.47266 8.03711 4.99023 8.03711L8.04688 8.03711L8.04688 4.98047C8.04688 4.47266 8.37891 4.11133 8.87695 4.11133C9.38477 4.11133 9.73633 4.47266 9.73633 4.98047L9.73633 8.03711L12.8027 8.03711C13.3008 8.03711 13.6621 8.38867 13.6621 8.89648C13.6621 9.39453 13.3008 9.72656 12.8027 9.72656L9.73633 9.72656L9.73633 12.793C9.73633 13.3008 9.38477 13.6523 8.87695 13.6523C8.37891 13.6523 8.04688 13.291 8.04688 12.793L8.04688 9.72656L4.99023 9.72656C4.48242 9.72656 4.12109 9.39453 4.12109 8.89648Z"/>
 </g>
</svg>
